<?xml version="1.0"?>
<svg version="1.1" xmlns="http://www.w3.org/2000/svg" width="330" height="60" style="border: dashed 2px #aaa"><path fill="#ffa600" d="M23.88,49.4l0-18.8l-3.8,0l-1,3.8l-3.68,0l0-8.6l23.2,0l0,8.6l-3.72,0l-1-3.8l-3.8,0l0,18.8l3.8,1.2l0,3.4l-13.8,0l0-3.4z M62.6604,34.8l-0.92-3.84s-1.88-0.64-4.48-0.64c-4.2,0-6.6,3.12-6.6,9.8c0,6.48,2.6,9.2,6.8,9.2c4,0,7.6-2.8,7.6-2.8l2.2,3.6s-4.2,4.36-10.48,4.36c-8.12,0-12.8-4.88-12.8-14.16c0-9.4,5.28-15,13.48-15c4.84,0,9.32,1.88,9.32,1.88l-0.2,7.6l-3.92,0z M113.1412,50.6l0,3.4l-12.72,0l0-3.4l3-1.08l-0.96-2.92l-8.88,0l-1,2.88l3.12,1.12l0,3.4l-12.08,0l0-3.4l2.92-1.12l8.8-23.56l6.4-0.12l8.6,23.68z M101.1412,42.32l-3-9.48l-3.16,9.48l6.16,0z M137.0016,34.8l-0.92-3.84s-1.88-0.64-4.48-0.64c-4.2,0-6.6,3.12-6.6,9.8c0,6.48,2.6,9.2,6.8,9.2c4,0,7.6-2.8,7.6-2.8l2.2,3.6s-4.2,4.36-10.48,4.36c-8.12,0-12.8-4.88-12.8-14.16c0-9.4,5.28-15,13.48-15c4.84,0,9.32,1.88,9.32,1.88l-0.2,7.6l-3.92,0z M160.982,25.32c8,0,12.6,5.28,12.6,14.2c0,9-5.4,15-13.4,15s-12.4-5-12.4-14.4c0-9.2,5.08-14.8,13.2-14.8z M160.782,30.32c-4,0-6.2,2.48-6.2,9.6c0,6.6,1.8,9.6,5.8,9.6s6.4-2.6,6.4-9.8c0-6.6-2-9.4-6-9.4z M189.1224,30.6l0,12.6c0,4.6,1.32,6.4,5.24,6.4c4.24,0,5.16-2.28,5.16-7l0-12l-3.12-1.2l0-3.4l12.32-0.2l0,3.6l-3,1.2l0,12c0,7.72-2.96,11.88-11.56,11.88c-8.04,0-11.24-3.56-11.24-11.28l0-12.6l-2.96-1.2l0-3.4l12.28-0.2l0,3.6z M219.4628,45.32l0.6,3.36s1.6,0.84,3.92,0.84c2.56,0,4.84-1.12,4.84-3.24c0-4.68-13.52-2.6-13.52-12.48c0-5.52,4.36-8.48,10.16-8.48c4.52,0,8.8,1.6,8.8,1.6l-0.2,7.28l-3.68,0l-1-3.4s-1.8-0.6-3.52-0.6c-2.84,0-4.24,1.24-4.24,2.84c0,4.64,13.48,2.8,13.48,12.2c0,6-4.64,9.28-10.8,9.28c-4.52,0-8.92-1.52-8.92-1.52l0-7.68l4.08,0z M248.7632,49.4l0-18.8l-3.8,0l-1,3.8l-3.68,0l0-8.6l23.2,0l0,8.6l-3.72,0l-1-3.8l-3.8,0l0,18.8l3.8,1.2l0,3.4l-13.8,0l0-3.4z M268.2636,54l0-3.4l3-1.2l0-18.8l-3-1.2l0-3.4l12.2-0.2l0,3.6l-3,1.2l0,18.8l3,1.2l0,3.4l-12.2,0z M305.724,34.8l-0.92-3.84s-1.88-0.64-4.48-0.64c-4.2,0-6.6,3.12-6.6,9.8c0,6.48,2.6,9.2,6.8,9.2c4,0,7.6-2.8,7.6-2.8l2.2,3.6s-4.2,4.36-10.48,4.36c-8.12,0-12.8-4.88-12.8-14.16c0-9.4,5.28-15,13.48-15c4.84,0,9.32,1.88,9.32,1.88l-0.2,7.6l-3.92,0z"/><path fill="#" d=""/></svg>
